<svg width="40" height="40" viewBox="0 0 40 40" fill="none" xmlns="http://www.w3.org/2000/svg">
<path fill-rule="evenodd" clip-rule="evenodd" d="M25.1554 12.4875C25.8049 11.8375 26.8623 11.8375 27.5122 12.4875C27.8269 12.8021 28.0003 13.2208 28.0003 13.6662C28.0003 14.1115 27.8269 14.5302 27.5122 14.8442L26.5896 15.7669L24.2328 13.4102L25.1554 12.4875ZM18.2506 19.3924C18.2039 19.4391 18.1725 19.4984 18.1592 19.5624L17.6879 21.9198C17.6659 22.0291 17.7006 22.1418 17.7792 22.2211C17.8426 22.2845 17.9279 22.3184 18.0153 22.3184C18.0366 22.3184 18.0587 22.3165 18.0806 22.3118L20.4374 21.8405C20.5027 21.8271 20.562 21.7958 20.608 21.7491L25.8829 16.4742L23.5261 14.1176L18.2506 19.3924ZM24.6668 19.9997C24.2981 19.9997 24.0001 20.2985 24.0001 20.6664V25.9999C24.0001 26.3673 23.7014 26.6666 23.3335 26.6666H13.9998C13.6318 26.6666 13.3332 26.3673 13.3332 25.9999V16.6663C13.3332 16.2989 13.6318 15.9996 13.9998 15.9996H19.3333C19.702 15.9996 20 15.7009 20 15.333C20 14.9649 19.702 14.6662 19.3333 14.6662H13.9998C12.8971 14.6662 11.9997 15.5636 11.9997 16.6663V25.9999C11.9997 27.1026 12.8971 28 13.9998 28H23.3335C24.4362 28 25.3335 27.1026 25.3335 25.9999V20.6664C25.3335 20.2977 25.0354 19.9997 24.6668 19.9997Z" fill="#1CABE2"/>
</svg>
