<svg width="40" height="41" viewBox="0 0 40 41" fill="none" xmlns="http://www.w3.org/2000/svg">
<path d="M20 22.9C21.1046 22.9 22 22.0046 22 20.9C22 19.7954 21.1046 18.9 20 18.9C18.8954 18.9 18 19.7954 18 20.9C18 22.0046 18.8954 22.9 20 22.9Z" fill="#777779"/>
<path d="M20 16.9C21.1046 16.9 22 16.0046 22 14.9C22 13.7954 21.1046 12.9 20 12.9C18.8954 12.9 18 13.7954 18 14.9C18 16.0046 18.8954 16.9 20 16.9Z" fill="#777779"/>
<path d="M20 28.9C21.1046 28.9 22 28.0046 22 26.9C22 25.7954 21.1046 24.9 20 24.9C18.8954 24.9 18 25.7954 18 26.9C18 28.0046 18.8954 28.9 20 28.9Z" fill="#777779"/>
</svg>
