<svg width="40" height="41" viewBox="0 0 20 21" fill="none" xmlns="http://www.w3.org/2000/svg">
    <g transform="translate(-10,-10)">
        <path fill-rule="evenodd" clip-rule="evenodd" d="M19.7 13.2L27.7 21.2C28.1 21.6 28.1 22.2 27.7 22.6L21.7 28.6C21.5 28.8 21.3 28.9 21 28.9C20.7 28.9 20.5 28.8 20.3 28.6L12.3 20.6C12.1 20.4 12 20.2 12 19.9V13.9C12 13.3 12.4 12.9 13 12.9H19C19.3 12.9 19.5 13 19.7 13.2ZM15 16.9C15 17.5 15.4 17.9 16 17.9C16.6 17.9 17 17.5 17 16.9C17 16.3 16.6 15.9 16 15.9C15.4 15.9 15 16.3 15 16.9Z" fill="white"/>
    </g>
</svg>
