<svg width="40" height="40" viewBox="0 0 40 40" fill="none" xmlns="http://www.w3.org/2000/svg">
<path fill-rule="evenodd" clip-rule="evenodd" d="M18.663 12.9658H21.337V13.4158H22.3027V12.9028C22.3029 12.405 21.8981 12 21.4005 12H18.5995C18.1019 12 17.6971 12.405 17.6971 12.9028V13.4158H18.663V12.9658ZM24.533 17.2422H15.467C15.2186 17.2422 15.0231 17.4541 15.0431 17.7018L15.801 27.0739C15.8433 27.597 16.2797 28 16.804 28H23.1959C23.7202 28 24.1566 27.597 24.1988 27.0737L24.9568 17.7018C24.9769 17.4541 24.7814 17.2422 24.533 17.2422ZM17.6622 27.0004C17.6521 27.001 17.642 27.0013 17.632 27.0013C17.3788 27.0013 17.1663 26.8042 17.1505 26.5481L16.6755 18.8541C16.6592 18.5879 16.8617 18.3588 17.1278 18.3424C17.3931 18.3263 17.6232 18.5283 17.6395 18.7947L18.1144 26.4886C18.1309 26.7549 17.9283 26.9839 17.6622 27.0004ZM20.4883 26.5184C20.4883 26.785 20.2721 27.0012 20.0054 27.0012C19.7386 27.0012 19.5225 26.785 19.5225 26.5184V18.8243C19.5225 18.5576 19.7386 18.3414 20.0054 18.3414C20.272 18.3414 20.4883 18.5576 20.4883 18.8243V26.5184ZM23.3245 18.8528L22.871 26.5468C22.856 26.8033 22.6431 27.0012 22.3894 27.0012C22.3799 27.0012 22.3702 27.001 22.3606 27.0005C22.0944 26.9847 21.8912 26.7562 21.907 26.49L22.3603 18.7959C22.376 18.5297 22.6038 18.3265 22.8707 18.3423C23.137 18.3579 23.3401 18.5865 23.3245 18.8528ZM25.8857 14.8013L26.2029 15.752C26.264 15.9352 26.1844 16.1222 26.0359 16.2155C25.9755 16.2535 25.9037 16.2764 25.825 16.2764H14.175C14.0963 16.2764 14.0247 16.2535 13.9641 16.2156C13.8156 16.1223 13.736 15.9353 13.7971 15.752L14.1143 14.8013C14.1978 14.5507 14.4325 14.3816 14.6967 14.3816H25.3032C25.5675 14.3816 25.8021 14.5507 25.8857 14.8013Z" fill="#1CABE2"/>
</svg>
