<svg width="40" height="40" viewBox="0 0 40 40" fill="none" xmlns="http://www.w3.org/2000/svg">
<path fill-rule="evenodd" clip-rule="evenodd" d="M15.7812 16.2188C15.7812 13.8925 17.6738 12 20 12C22.3262 12 24.2188 13.8925 24.2188 16.2188C24.2188 18.545 22.3262 20.4375 20 20.4375C17.6738 20.4375 15.7812 18.545 15.7812 16.2188ZM20.9375 21.375C22.5628 21.375 24.0939 22.0208 25.2489 23.1936C26.3983 24.3606 27.0312 25.901 27.0312 27.5312C27.0312 27.7901 26.8214 28 26.5625 28H13.4375C13.1786 28 12.9688 27.7901 12.9688 27.5312C12.9688 25.901 13.6017 24.3606 14.7511 23.1936C15.9061 22.0208 17.4373 21.375 19.0625 21.375H20.9375Z" fill="#1CABE2"/>
</svg>
